<?xml version="1.0" encoding="UTF-8" standalone="no"?>
<!DOCTYPE svg PUBLIC "-//W3C//DTD SVG 1.1//EN"
 "http://www.w3.org/Graphics/SVG/1.1/DTD/svg11.dtd">
<!-- Generated by graphviz version 2.50.0 (0)
 -->
<!-- Pages: 1 -->
<svg width="864pt" height="398pt"
 viewBox="0.00 0.00 864.00 398.28" xmlns="http://www.w3.org/2000/svg" xmlns:xlink="http://www.w3.org/1999/xlink">
<g id="graph0" class="graph" transform="scale(0.7 0.7) rotate(0) translate(4 563)">
<polygon fill="white" stroke="transparent" points="-4,4 -4,-563 1226,-563 1226,4 -4,4"/>
<!-- 1946195723104 -->
<g id="node1" class="node">
<title>1946195723104</title>
<polygon fill="#caff70" stroke="black" points="618,-31 553,-31 553,0 618,0 618,-31"/>
<text text-anchor="middle" x="585.5" y="-7" font-family="monospace" font-size="10.00"> (1, 42)</text>
</g>
<!-- 1946109800752 -->
<g id="node2" class="node">
<title>1946109800752</title>
<polygon fill="lightgrey" stroke="black" points="630,-86 541,-86 541,-67 630,-67 630,-86"/>
<text text-anchor="middle" x="585.5" y="-74" font-family="monospace" font-size="10.00">AddBackward0</text>
</g>
<!-- 1946109800752&#45;&gt;1946195723104 -->
<g id="edge36" class="edge">
<title>1946109800752&#45;&gt;1946195723104</title>
<path fill="none" stroke="black" d="M585.5,-66.79C585.5,-60.07 585.5,-50.4 585.5,-41.34"/>
<polygon fill="black" stroke="black" points="589,-41.19 585.5,-31.19 582,-41.19 589,-41.19"/>
</g>
<!-- 1946109798208 -->
<g id="node3" class="node">
<title>1946109798208</title>
<polygon fill="lightgrey" stroke="black" points="717,-141 616,-141 616,-122 717,-122 717,-141"/>
<text text-anchor="middle" x="666.5" y="-129" font-family="monospace" font-size="10.00">AddmmBackward0</text>
</g>
<!-- 1946109798208&#45;&gt;1946109800752 -->
<g id="edge1" class="edge">
<title>1946109798208&#45;&gt;1946109800752</title>
<path fill="none" stroke="black" d="M653.49,-121.98C641.04,-113.84 622.04,-101.41 607.29,-91.76"/>
<polygon fill="black" stroke="black" points="609.04,-88.72 598.75,-86.17 605.2,-94.57 609.04,-88.72"/>
</g>
<!-- 1946109797632 -->
<g id="node4" class="node">
<title>1946109797632</title>
<polygon fill="lightgrey" stroke="black" points="738,-196 637,-196 637,-177 738,-177 738,-196"/>
<text text-anchor="middle" x="687.5" y="-184" font-family="monospace" font-size="10.00">AccumulateGrad</text>
</g>
<!-- 1946109797632&#45;&gt;1946109798208 -->
<g id="edge2" class="edge">
<title>1946109797632&#45;&gt;1946109798208</title>
<path fill="none" stroke="black" d="M684.03,-176.75C681.22,-169.65 677.16,-159.4 673.65,-150.56"/>
<polygon fill="black" stroke="black" points="676.84,-149.1 669.9,-141.09 670.33,-151.68 676.84,-149.1"/>
</g>
<!-- 1946109796960 -->
<g id="node30" class="node">
<title>1946109796960</title>
<polygon fill="lightgrey" stroke="black" points="577,-141 476,-141 476,-122 577,-122 577,-141"/>
<text text-anchor="middle" x="526.5" y="-129" font-family="monospace" font-size="10.00">AddmmBackward0</text>
</g>
<!-- 1946109797632&#45;&gt;1946109796960 -->
<g id="edge29" class="edge">
<title>1946109797632&#45;&gt;1946109796960</title>
<path fill="none" stroke="black" d="M661.63,-176.98C634.72,-168.13 592.38,-154.19 562.27,-144.28"/>
<polygon fill="black" stroke="black" points="563.16,-140.88 552.57,-141.08 560.97,-147.53 563.16,-140.88"/>
</g>
<!-- 1946540875168 -->
<g id="node5" class="node">
<title>1946540875168</title>
<polygon fill="lightblue" stroke="black" points="717,-262 658,-262 658,-232 717,-232 717,-262"/>
<text text-anchor="middle" x="687.5" y="-250" font-family="monospace" font-size="10.00">fc.bias</text>
<text text-anchor="middle" x="687.5" y="-239" font-family="monospace" font-size="10.00"> (42)</text>
</g>
<!-- 1946540875168&#45;&gt;1946109797632 -->
<g id="edge3" class="edge">
<title>1946540875168&#45;&gt;1946109797632</title>
<path fill="none" stroke="black" d="M687.5,-231.84C687.5,-224.21 687.5,-214.7 687.5,-206.45"/>
<polygon fill="black" stroke="black" points="691,-206.27 687.5,-196.27 684,-206.27 691,-206.27"/>
</g>
<!-- 1946109797248 -->
<g id="node6" class="node">
<title>1946109797248</title>
<polygon fill="lightgrey" stroke="black" points="857,-196 756,-196 756,-177 857,-177 857,-196"/>
<text text-anchor="middle" x="806.5" y="-184" font-family="monospace" font-size="10.00">SliceBackward0</text>
</g>
<!-- 1946109797248&#45;&gt;1946109798208 -->
<g id="edge4" class="edge">
<title>1946109797248&#45;&gt;1946109798208</title>
<path fill="none" stroke="black" d="M784.01,-176.98C760.98,-168.27 724.96,-154.63 698.87,-144.75"/>
<polygon fill="black" stroke="black" points="699.99,-141.44 689.4,-141.17 697.52,-147.98 699.99,-141.44"/>
</g>
<!-- 1946109797344 -->
<g id="node7" class="node">
<title>1946109797344</title>
<polygon fill="lightgrey" stroke="black" points="851,-256.5 744,-256.5 744,-237.5 851,-237.5 851,-256.5"/>
<text text-anchor="middle" x="797.5" y="-244.5" font-family="monospace" font-size="10.00">SelectBackward0</text>
</g>
<!-- 1946109797344&#45;&gt;1946109797248 -->
<g id="edge5" class="edge">
<title>1946109797344&#45;&gt;1946109797248</title>
<path fill="none" stroke="black" d="M798.83,-237.37C800.09,-229.16 802.03,-216.54 803.65,-206.05"/>
<polygon fill="black" stroke="black" points="807.11,-206.58 805.17,-196.17 800.19,-205.52 807.11,-206.58"/>
</g>
<!-- 1946109797728 -->
<g id="node8" class="node">
<title>1946109797728</title>
<polygon fill="lightgrey" stroke="black" points="780,-322.5 679,-322.5 679,-303.5 780,-303.5 780,-322.5"/>
<text text-anchor="middle" x="729.5" y="-310.5" font-family="monospace" font-size="10.00">SliceBackward0</text>
</g>
<!-- 1946109797728&#45;&gt;1946109797344 -->
<g id="edge6" class="edge">
<title>1946109797728&#45;&gt;1946109797344</title>
<path fill="none" stroke="black" d="M738.67,-303.37C749.36,-293.31 767.24,-276.48 780.49,-264.01"/>
<polygon fill="black" stroke="black" points="783.15,-266.31 788.04,-256.91 778.36,-261.21 783.15,-266.31"/>
</g>
<!-- 1946109804112 -->
<g id="node9" class="node">
<title>1946109804112</title>
<polygon fill="lightgrey" stroke="black" points="609,-383 460,-383 460,-364 609,-364 609,-383"/>
<text text-anchor="middle" x="534.5" y="-371" font-family="monospace" font-size="10.00">NativeDropoutBackward0</text>
</g>
<!-- 1946109804112&#45;&gt;1946109797728 -->
<g id="edge7" class="edge">
<title>1946109804112&#45;&gt;1946109797728</title>
<path fill="none" stroke="black" d="M562.85,-363.99C596.79,-353.81 653.76,-336.72 691.49,-325.4"/>
<polygon fill="black" stroke="black" points="692.54,-328.74 701.11,-322.52 690.53,-322.04 692.54,-328.74"/>
</g>
<!-- 1946109796144 -->
<g id="node33" class="node">
<title>1946109796144</title>
<polygon fill="lightgrey" stroke="black" points="475,-322.5 374,-322.5 374,-303.5 475,-303.5 475,-322.5"/>
<text text-anchor="middle" x="424.5" y="-310.5" font-family="monospace" font-size="10.00">SliceBackward0</text>
</g>
<!-- 1946109804112&#45;&gt;1946109796144 -->
<g id="edge33" class="edge">
<title>1946109804112&#45;&gt;1946109796144</title>
<path fill="none" stroke="black" d="M518.27,-363.87C500.23,-354.28 470.88,-338.67 449.82,-327.47"/>
<polygon fill="black" stroke="black" points="451.27,-324.27 440.8,-322.67 447.98,-330.45 451.27,-324.27"/>
</g>
<!-- 1946109796336 -->
<g id="node10" class="node">
<title>1946109796336</title>
<polygon fill="lightgrey" stroke="black" points="594,-438 475,-438 475,-419 594,-419 594,-438"/>
<text text-anchor="middle" x="534.5" y="-426" font-family="monospace" font-size="10.00">CudnnRnnBackward0</text>
</g>
<!-- 1946109796336&#45;&gt;1946109804112 -->
<g id="edge8" class="edge">
<title>1946109796336&#45;&gt;1946109804112</title>
<path fill="none" stroke="black" d="M534.5,-418.75C534.5,-411.8 534.5,-401.85 534.5,-393.13"/>
<polygon fill="black" stroke="black" points="538,-393.09 534.5,-383.09 531,-393.09 538,-393.09"/>
</g>
<!-- 1946109797872 -->
<g id="node11" class="node">
<title>1946109797872</title>
<polygon fill="lightgrey" stroke="black" points="134,-493 33,-493 33,-474 134,-474 134,-493"/>
<text text-anchor="middle" x="83.5" y="-481" font-family="monospace" font-size="10.00">AccumulateGrad</text>
</g>
<!-- 1946109797872&#45;&gt;1946109796336 -->
<g id="edge9" class="edge">
<title>1946109797872&#45;&gt;1946109796336</title>
<path fill="none" stroke="black" d="M134.36,-476.52C215.29,-467.01 373.56,-448.41 464.93,-437.68"/>
<polygon fill="black" stroke="black" points="465.39,-441.15 474.91,-436.5 464.57,-434.19 465.39,-441.15"/>
</g>
<!-- 1946540874928 -->
<g id="node12" class="node">
<title>1946540874928</title>
<polygon fill="lightblue" stroke="black" points="119,-559 0,-559 0,-529 119,-529 119,-559"/>
<text text-anchor="middle" x="59.5" y="-547" font-family="monospace" font-size="10.00">lstm.weight_ih_l0</text>
<text text-anchor="middle" x="59.5" y="-536" font-family="monospace" font-size="10.00"> (5120, 768)</text>
</g>
<!-- 1946540874928&#45;&gt;1946109797872 -->
<g id="edge10" class="edge">
<title>1946540874928&#45;&gt;1946109797872</title>
<path fill="none" stroke="black" d="M65.31,-528.84C68.54,-520.95 72.61,-511.05 76.07,-502.61"/>
<polygon fill="black" stroke="black" points="79.35,-503.85 79.9,-493.27 72.87,-501.19 79.35,-503.85"/>
</g>
<!-- 1946109796720 -->
<g id="node13" class="node">
<title>1946109796720</title>
<polygon fill="lightgrey" stroke="black" points="271,-493 170,-493 170,-474 271,-474 271,-493"/>
<text text-anchor="middle" x="220.5" y="-481" font-family="monospace" font-size="10.00">AccumulateGrad</text>
</g>
<!-- 1946109796720&#45;&gt;1946109796336 -->
<g id="edge11" class="edge">
<title>1946109796720&#45;&gt;1946109796336</title>
<path fill="none" stroke="black" d="M270.95,-473.98C326.26,-464.65 414.97,-449.67 473.98,-439.71"/>
<polygon fill="black" stroke="black" points="474.64,-443.15 483.92,-438.04 473.47,-436.25 474.64,-443.15"/>
</g>
<!-- 1945871636800 -->
<g id="node14" class="node">
<title>1945871636800</title>
<polygon fill="lightblue" stroke="black" points="256,-559 137,-559 137,-529 256,-529 256,-559"/>
<text text-anchor="middle" x="196.5" y="-547" font-family="monospace" font-size="10.00">lstm.weight_hh_l0</text>
<text text-anchor="middle" x="196.5" y="-536" font-family="monospace" font-size="10.00"> (5120, 1280)</text>
</g>
<!-- 1945871636800&#45;&gt;1946109796720 -->
<g id="edge12" class="edge">
<title>1945871636800&#45;&gt;1946109796720</title>
<path fill="none" stroke="black" d="M202.31,-528.84C205.54,-520.95 209.61,-511.05 213.07,-502.61"/>
<polygon fill="black" stroke="black" points="216.35,-503.85 216.9,-493.27 209.87,-501.19 216.35,-503.85"/>
</g>
<!-- 1946109804016 -->
<g id="node15" class="node">
<title>1946109804016</title>
<polygon fill="lightgrey" stroke="black" points="399,-493 298,-493 298,-474 399,-474 399,-493"/>
<text text-anchor="middle" x="348.5" y="-481" font-family="monospace" font-size="10.00">AccumulateGrad</text>
</g>
<!-- 1946109804016&#45;&gt;1946109796336 -->
<g id="edge13" class="edge">
<title>1946109804016&#45;&gt;1946109796336</title>
<path fill="none" stroke="black" d="M378.38,-473.98C409.88,-465.01 459.67,-450.82 494.53,-440.89"/>
<polygon fill="black" stroke="black" points="495.72,-444.19 504.38,-438.08 493.81,-437.46 495.72,-444.19"/>
</g>
<!-- 1945871637440 -->
<g id="node16" class="node">
<title>1945871637440</title>
<polygon fill="lightblue" stroke="black" points="381,-559 274,-559 274,-529 381,-529 381,-559"/>
<text text-anchor="middle" x="327.5" y="-547" font-family="monospace" font-size="10.00">lstm.bias_ih_l0</text>
<text text-anchor="middle" x="327.5" y="-536" font-family="monospace" font-size="10.00"> (5120)</text>
</g>
<!-- 1945871637440&#45;&gt;1946109804016 -->
<g id="edge14" class="edge">
<title>1945871637440&#45;&gt;1946109804016</title>
<path fill="none" stroke="black" d="M332.58,-528.84C335.38,-521.04 338.89,-511.27 341.9,-502.89"/>
<polygon fill="black" stroke="black" points="345.27,-503.86 345.35,-493.27 338.68,-501.5 345.27,-503.86"/>
</g>
<!-- 1946109800848 -->
<g id="node17" class="node">
<title>1946109800848</title>
<polygon fill="lightgrey" stroke="black" points="521,-493 420,-493 420,-474 521,-474 521,-493"/>
<text text-anchor="middle" x="470.5" y="-481" font-family="monospace" font-size="10.00">AccumulateGrad</text>
</g>
<!-- 1946109800848&#45;&gt;1946109796336 -->
<g id="edge15" class="edge">
<title>1946109800848&#45;&gt;1946109796336</title>
<path fill="none" stroke="black" d="M480.78,-473.98C490.34,-466.07 504.78,-454.11 516.28,-444.58"/>
<polygon fill="black" stroke="black" points="518.56,-447.24 524.03,-438.17 514.1,-441.85 518.56,-447.24"/>
</g>
<!-- 1946530220208 -->
<g id="node18" class="node">
<title>1946530220208</title>
<polygon fill="lightblue" stroke="black" points="506,-559 399,-559 399,-529 506,-529 506,-559"/>
<text text-anchor="middle" x="452.5" y="-547" font-family="monospace" font-size="10.00">lstm.bias_hh_l0</text>
<text text-anchor="middle" x="452.5" y="-536" font-family="monospace" font-size="10.00"> (5120)</text>
</g>
<!-- 1946530220208&#45;&gt;1946109800848 -->
<g id="edge16" class="edge">
<title>1946530220208&#45;&gt;1946109800848</title>
<path fill="none" stroke="black" d="M456.86,-528.84C459.26,-521.04 462.26,-511.27 464.84,-502.89"/>
<polygon fill="black" stroke="black" points="468.21,-503.85 467.8,-493.27 461.52,-501.79 468.21,-503.85"/>
</g>
<!-- 1946109797008 -->
<g id="node19" class="node">
<title>1946109797008</title>
<polygon fill="lightgrey" stroke="black" points="649,-493 548,-493 548,-474 649,-474 649,-493"/>
<text text-anchor="middle" x="598.5" y="-481" font-family="monospace" font-size="10.00">AccumulateGrad</text>
</g>
<!-- 1946109797008&#45;&gt;1946109796336 -->
<g id="edge17" class="edge">
<title>1946109797008&#45;&gt;1946109796336</title>
<path fill="none" stroke="black" d="M588.22,-473.98C578.66,-466.07 564.22,-454.11 552.72,-444.58"/>
<polygon fill="black" stroke="black" points="554.9,-441.85 544.97,-438.17 550.44,-447.24 554.9,-441.85"/>
</g>
<!-- 1946516986816 -->
<g id="node20" class="node">
<title>1946516986816</title>
<polygon fill="lightblue" stroke="black" points="691,-559 524,-559 524,-529 691,-529 691,-559"/>
<text text-anchor="middle" x="607.5" y="-547" font-family="monospace" font-size="10.00">lstm.weight_ih_l0_reverse</text>
<text text-anchor="middle" x="607.5" y="-536" font-family="monospace" font-size="10.00"> (5120, 768)</text>
</g>
<!-- 1946516986816&#45;&gt;1946109797008 -->
<g id="edge18" class="edge">
<title>1946516986816&#45;&gt;1946109797008</title>
<path fill="none" stroke="black" d="M605.32,-528.84C604.13,-521.13 602.65,-511.49 601.37,-503.17"/>
<polygon fill="black" stroke="black" points="604.83,-502.62 599.85,-493.27 597.91,-503.68 604.83,-502.62"/>
</g>
<!-- 1946109796384 -->
<g id="node21" class="node">
<title>1946109796384</title>
<polygon fill="lightgrey" stroke="black" points="805,-493 704,-493 704,-474 805,-474 805,-493"/>
<text text-anchor="middle" x="754.5" y="-481" font-family="monospace" font-size="10.00">AccumulateGrad</text>
</g>
<!-- 1946109796384&#45;&gt;1946109796336 -->
<g id="edge19" class="edge">
<title>1946109796384&#45;&gt;1946109796336</title>
<path fill="none" stroke="black" d="M719.15,-473.98C681.34,-464.87 621.24,-450.4 579.93,-440.45"/>
<polygon fill="black" stroke="black" points="580.67,-437.02 570.12,-438.08 579.03,-443.83 580.67,-437.02"/>
</g>
<!-- 1945885827744 -->
<g id="node22" class="node">
<title>1945885827744</title>
<polygon fill="lightblue" stroke="black" points="876,-559 709,-559 709,-529 876,-529 876,-559"/>
<text text-anchor="middle" x="792.5" y="-547" font-family="monospace" font-size="10.00">lstm.weight_hh_l0_reverse</text>
<text text-anchor="middle" x="792.5" y="-536" font-family="monospace" font-size="10.00"> (5120, 1280)</text>
</g>
<!-- 1945885827744&#45;&gt;1946109796384 -->
<g id="edge20" class="edge">
<title>1945885827744&#45;&gt;1946109796384</title>
<path fill="none" stroke="black" d="M783.3,-528.84C778.01,-520.69 771.32,-510.4 765.72,-501.78"/>
<polygon fill="black" stroke="black" points="768.58,-499.75 760.19,-493.27 762.71,-503.56 768.58,-499.75"/>
</g>
<!-- 1946109796192 -->
<g id="node23" class="node">
<title>1946109796192</title>
<polygon fill="lightgrey" stroke="black" points="973,-493 872,-493 872,-474 973,-474 973,-493"/>
<text text-anchor="middle" x="922.5" y="-481" font-family="monospace" font-size="10.00">AccumulateGrad</text>
</g>
<!-- 1946109796192&#45;&gt;1946109796336 -->
<g id="edge21" class="edge">
<title>1946109796192&#45;&gt;1946109796336</title>
<path fill="none" stroke="black" d="M871.78,-475.57C803.36,-466.23 681.24,-449.54 604.23,-439.03"/>
<polygon fill="black" stroke="black" points="604.52,-435.53 594.14,-437.65 603.58,-442.47 604.52,-435.53"/>
</g>
<!-- 1947817419504 -->
<g id="node24" class="node">
<title>1947817419504</title>
<polygon fill="lightblue" stroke="black" points="1049,-559 894,-559 894,-529 1049,-529 1049,-559"/>
<text text-anchor="middle" x="971.5" y="-547" font-family="monospace" font-size="10.00">lstm.bias_ih_l0_reverse</text>
<text text-anchor="middle" x="971.5" y="-536" font-family="monospace" font-size="10.00"> (5120)</text>
</g>
<!-- 1947817419504&#45;&gt;1946109796192 -->
<g id="edge22" class="edge">
<title>1947817419504&#45;&gt;1946109796192</title>
<path fill="none" stroke="black" d="M959.64,-528.84C952.6,-520.43 943.64,-509.74 936.29,-500.96"/>
<polygon fill="black" stroke="black" points="938.95,-498.68 929.84,-493.27 933.58,-503.18 938.95,-498.68"/>
</g>
<!-- 1946109797824 -->
<g id="node25" class="node">
<title>1946109797824</title>
<polygon fill="lightgrey" stroke="black" points="1143,-493 1042,-493 1042,-474 1143,-474 1143,-493"/>
<text text-anchor="middle" x="1092.5" y="-481" font-family="monospace" font-size="10.00">AccumulateGrad</text>
</g>
<!-- 1946109797824&#45;&gt;1946109796336 -->
<g id="edge23" class="edge">
<title>1946109797824&#45;&gt;1946109796336</title>
<path fill="none" stroke="black" d="M1042,-477.7C941.87,-468.19 718.04,-446.93 604.06,-436.11"/>
<polygon fill="black" stroke="black" points="604.34,-432.62 594.05,-435.16 603.67,-439.59 604.34,-432.62"/>
</g>
<!-- 1945843447456 -->
<g id="node26" class="node">
<title>1945843447456</title>
<polygon fill="lightblue" stroke="black" points="1222,-559 1067,-559 1067,-529 1222,-529 1222,-559"/>
<text text-anchor="middle" x="1144.5" y="-547" font-family="monospace" font-size="10.00">lstm.bias_hh_l0_reverse</text>
<text text-anchor="middle" x="1144.5" y="-536" font-family="monospace" font-size="10.00"> (5120)</text>
</g>
<!-- 1945843447456&#45;&gt;1946109797824 -->
<g id="edge24" class="edge">
<title>1945843447456&#45;&gt;1946109797824</title>
<path fill="none" stroke="black" d="M1131.91,-528.84C1124.44,-520.43 1114.94,-509.74 1107.13,-500.96"/>
<polygon fill="black" stroke="black" points="1109.55,-498.41 1100.29,-493.27 1104.32,-503.07 1109.55,-498.41"/>
</g>
<!-- 1946109803776 -->
<g id="node27" class="node">
<title>1946109803776</title>
<polygon fill="lightgrey" stroke="black" points="619,-196 542,-196 542,-177 619,-177 619,-196"/>
<text text-anchor="middle" x="580.5" y="-184" font-family="monospace" font-size="10.00">TBackward0</text>
</g>
<!-- 1946109803776&#45;&gt;1946109798208 -->
<g id="edge25" class="edge">
<title>1946109803776&#45;&gt;1946109798208</title>
<path fill="none" stroke="black" d="M594.32,-176.98C607.65,-168.77 628.08,-156.18 643.81,-146.49"/>
<polygon fill="black" stroke="black" points="645.75,-149.4 652.43,-141.17 642.08,-143.44 645.75,-149.4"/>
</g>
<!-- 1946109798256 -->
<g id="node28" class="node">
<title>1946109798256</title>
<polygon fill="lightgrey" stroke="black" points="611,-256.5 510,-256.5 510,-237.5 611,-237.5 611,-256.5"/>
<text text-anchor="middle" x="560.5" y="-244.5" font-family="monospace" font-size="10.00">AccumulateGrad</text>
</g>
<!-- 1946109798256&#45;&gt;1946109803776 -->
<g id="edge26" class="edge">
<title>1946109798256&#45;&gt;1946109803776</title>
<path fill="none" stroke="black" d="M563.45,-237.37C566.29,-229.07 570.66,-216.28 574.27,-205.72"/>
<polygon fill="black" stroke="black" points="577.61,-206.76 577.54,-196.17 570.99,-204.5 577.61,-206.76"/>
</g>
<!-- 1946109797392 -->
<g id="node34" class="node">
<title>1946109797392</title>
<polygon fill="lightgrey" stroke="black" points="524,-196 447,-196 447,-177 524,-177 524,-196"/>
<text text-anchor="middle" x="485.5" y="-184" font-family="monospace" font-size="10.00">TBackward0</text>
</g>
<!-- 1946109798256&#45;&gt;1946109797392 -->
<g id="edge35" class="edge">
<title>1946109798256&#45;&gt;1946109797392</title>
<path fill="none" stroke="black" d="M549.43,-237.37C537.69,-228.21 518.91,-213.56 504.74,-202.51"/>
<polygon fill="black" stroke="black" points="506.65,-199.56 496.61,-196.17 502.34,-205.08 506.65,-199.56"/>
</g>
<!-- 1946511171936 -->
<g id="node29" class="node">
<title>1946511171936</title>
<polygon fill="lightblue" stroke="black" points="602,-328 519,-328 519,-298 602,-298 602,-328"/>
<text text-anchor="middle" x="560.5" y="-316" font-family="monospace" font-size="10.00">fc.weight</text>
<text text-anchor="middle" x="560.5" y="-305" font-family="monospace" font-size="10.00"> (42, 2560)</text>
</g>
<!-- 1946511171936&#45;&gt;1946109798256 -->
<g id="edge27" class="edge">
<title>1946511171936&#45;&gt;1946109798256</title>
<path fill="none" stroke="black" d="M560.5,-297.8C560.5,-288.7 560.5,-276.79 560.5,-266.9"/>
<polygon fill="black" stroke="black" points="564,-266.84 560.5,-256.84 557,-266.84 564,-266.84"/>
</g>
<!-- 1946109796960&#45;&gt;1946109800752 -->
<g id="edge28" class="edge">
<title>1946109796960&#45;&gt;1946109800752</title>
<path fill="none" stroke="black" d="M535.98,-121.98C544.7,-114.15 557.84,-102.34 568.4,-92.86"/>
<polygon fill="black" stroke="black" points="570.75,-95.46 575.85,-86.17 566.07,-90.25 570.75,-95.46"/>
</g>
<!-- 1946109804256 -->
<g id="node31" class="node">
<title>1946109804256</title>
<polygon fill="lightgrey" stroke="black" points="429,-196 328,-196 328,-177 429,-177 429,-196"/>
<text text-anchor="middle" x="378.5" y="-184" font-family="monospace" font-size="10.00">SliceBackward0</text>
</g>
<!-- 1946109804256&#45;&gt;1946109796960 -->
<g id="edge30" class="edge">
<title>1946109804256&#45;&gt;1946109796960</title>
<path fill="none" stroke="black" d="M402.28,-176.98C426.73,-168.23 465.03,-154.51 492.65,-144.62"/>
<polygon fill="black" stroke="black" points="494.05,-147.84 502.29,-141.17 491.69,-141.25 494.05,-147.84"/>
</g>
<!-- 1946530562400 -->
<g id="node32" class="node">
<title>1946530562400</title>
<polygon fill="lightgrey" stroke="black" points="452,-256.5 345,-256.5 345,-237.5 452,-237.5 452,-256.5"/>
<text text-anchor="middle" x="398.5" y="-244.5" font-family="monospace" font-size="10.00">SelectBackward0</text>
</g>
<!-- 1946530562400&#45;&gt;1946109804256 -->
<g id="edge31" class="edge">
<title>1946530562400&#45;&gt;1946109804256</title>
<path fill="none" stroke="black" d="M395.55,-237.37C392.71,-229.07 388.34,-216.28 384.73,-205.72"/>
<polygon fill="black" stroke="black" points="388.01,-204.5 381.46,-196.17 381.39,-206.76 388.01,-204.5"/>
</g>
<!-- 1946109796144&#45;&gt;1946530562400 -->
<g id="edge32" class="edge">
<title>1946109796144&#45;&gt;1946530562400</title>
<path fill="none" stroke="black" d="M420.99,-303.37C417.18,-293.97 410.96,-278.67 406.03,-266.53"/>
<polygon fill="black" stroke="black" points="409.12,-264.85 402.12,-256.91 402.64,-267.49 409.12,-264.85"/>
</g>
<!-- 1946109797392&#45;&gt;1946109796960 -->
<g id="edge34" class="edge">
<title>1946109797392&#45;&gt;1946109796960</title>
<path fill="none" stroke="black" d="M492.27,-176.75C498.06,-169.26 506.56,-158.28 513.64,-149.13"/>
<polygon fill="black" stroke="black" points="516.51,-151.14 519.86,-141.09 510.97,-146.86 516.51,-151.14"/>
</g>
</g>
</svg>
